<?xml version="1.0" encoding="UTF-8" standalone="no"?>
<svg
   xmlns:dc="http://purl.org/dc/elements/1.1/"
   xmlns:cc="http://creativecommons.org/ns#"
   xmlns:rdf="http://www.w3.org/1999/02/22-rdf-syntax-ns#"
   xmlns:svg="http://www.w3.org/2000/svg"
   xmlns="http://www.w3.org/2000/svg"
   id="svg106"
   preserveAspectRatio="xMidYMid meet"
   viewBox="0 0 2000.000000 2000.000000"
   height="2000.000000pt"
   width="2000.000000pt"
   version="1.0">
  <metadata
     id="metadata112">
    <rdf:RDF>
      <cc:Work
         rdf:about="">
        <dc:format>image/svg+xml</dc:format>
        <dc:type
           rdf:resource="http://purl.org/dc/dcmitype/StillImage" />
      </cc:Work>
    </rdf:RDF>
  </metadata>
  <defs
     id="defs110" />
  <g
     id="g104"
     stroke="none"
     fill="#000000"
     transform="translate(0.000000,2000.000000) scale(0.100000,-0.100000)">
    <path
       id="path2"
       d="M6409 15547 c-41 -27 -76 -87 -85 -144 -17 -112 109 -343 390 -718 361 -482 799 -1057 872 -1144 69 -84 144 -189 144 -202 0 -4 -19 -10 -42 -14 -55 -9 -107 -44 -169 -116 -55 -64 -257 -254 -263 -248 -4 4 171 272 194 297 6 7 12 25 13 40 2 24 -2 27 -38 33 -22 3 -52 9 -67 13 -30 9 -32 7 -263 -326 -412 -593 -711 -923 -987 -1090 -34 -21 -65 -38 -69 -38 -5 0 14 29 41 65 63 84 84 151 78 255 -7 123 -54 194 -178 275 -85 54 -142 75 -238 84 -100 10 -186 -1 -271 -37 -186 -79 -345 -240 -446 -455 -92 -195 -98 -415 -14 -586 84 -170 322 -328 530 -350 214 -23 492 75 892 313 l129 76 -23 -37 c-151 -248 -420 -562 -644 -752 -127 -108 -184 -150 -400 -296 -104 -70 -225 -155 -268 -187 -379 -288 -480 -627 -332 -1108 20 -63 44 -155 55 -203 22 -98 53 -168 110 -242 171 -223 410 -367 705 -426 85 -16 476 -23 625 -10 293 25 663 62 774 78 86 12 187 17 351 17 253 -1 366 -12 665 -69 489 -94 965 -113 1340 -54 296 46 566 141 794 279 46 27 88 50 93 50 4 0 -11 -57 -34 -127 -105 -319 -139 -555 -119 -820 l8 -102 -24 -6 c-32 -8 -208 11 -283 30 -33 9 -94 31 -136 50 -56 26 -91 35 -129 35 l-53 0 6 -56 c7 -72 48 -140 146 -246 152 -164 357 -292 586 -365 29 -10 28 -11 -40 -32 -131 -41 -238 -54 -450 -54 -170 -1 -215 2 -302 21 -302 65 -504 191 -678 422 -71 95 -71 95 -114 94 -66 -1 -76 -19 -75 -122 1 -100 14 -169 56 -302 39 -121 93 -244 152 -344 26 -43 45 -80 44 -81 -2 -2 -41 -11 -88 -20 -400 -81 -759 -241 -1010 -450 -219 -183 -406 -489 -454 -745 -20 -101 -22 -296 -6 -395 45 -272 179 -489 405 -657 155 -116 294 -168 450 -168 280 1 489 147 640 449 25 51 50 104 55 117 10 26 18 26 -127 -2 -129 -25 -237 -13 -357 40 -193 86 -230 184 -135 367 56 109 172 228 279 287 261 145 572 162 1355 77 447 -49 563 -56 935 -56 472 0 804 41 1174 147 532 152 948 448 1317 939 407 542 659 1210 755 2005 12 97 17 237 19 500 l3 365 47 139 c68 202 85 299 92 516 9 299 -31 565 -133 881 -160 497 -402 901 -763 1272 -402 413 -808 684 -1453 970 -52 23 -63 34 -105 102 -67 106 -148 217 -221 300 -70 79 -79 101 -117 270 -90 401 -297 820 -478 967 -86 70 -140 93 -218 93 -56 0 -73 -5 -115 -30 -142 -89 -256 -357 -344 -815 -6 -31 -19 -69 -29 -86 -19 -32 -104 -79 -126 -71 -6 3 -26 43 -45 89 -182 464 -498 874 -697 904 -139 21 -213 -81 -293 -400 -32 -130 -40 -151 -56 -150 -11 1 -64 13 -119 28 -73 20 -139 29 -245 35 -158 9 -184 16 -245 65 -145 117 -817 566 -1135 758 -252 153 -515 283 -681 339 -116 39 -238 41 -290 6z m319 -130 c10 -9 28 -17 40 -17 16 0 20 -6 19 -25 -2 -29 -2 -29 163 -111 176 -86 551 -308 578 -342 6 -9 12 -40 12 -69 0 -101 -28 -201 -102 -358 -70 -151 -118 -278 -118 -316 0 -37 -23 -15 -120 114 -54 72 -102 126 -112 126 -13 1 -18 -9 -20 -41 l-3 -43 -17 32 c-11 20 -31 36 -53 43 -23 8 -45 26 -62 51 -14 21 -32 39 -40 39 -11 0 -13 5 -8 18 4 9 11 35 15 57 4 22 10 51 14 65 6 21 -1 36 -32 75 -89 113 -231 318 -304 439 -88 147 -115 214 -98 245 12 23 16 24 83 21 35 -1 47 2 47 12 0 20 93 8 118 -15z m1085 -672 c72 -50 88 -55 80 -25 -4 16 0 20 22 20 22 0 26 -4 23 -22 -2 -13 -9 -22 -17 -20 -48 10 31 -51 315 -242 78 -52 156 -112 173 -133 47 -57 65 -123 65 -233 -1 -128 -26 -197 -170 -476 -121 -235 -156 -319 -174 -427 l-12 -66 -85 102 c-46 56 -103 128 -126 159 -28 38 -47 56 -58 52 -21 -6 -80 35 -96 66 -7 14 -13 40 -13 59 0 26 -14 50 -63 110 -95 115 -172 221 -197 271 -19 36 -23 60 -23 125 1 98 20 157 114 357 66 139 99 242 114 350 l6 48 29 -15 c16 -8 58 -35 93 -60z m3064 -32 c233 -110 492 -707 579 -1333 26 -180 26 -598 1 -730 -48 -257 -120 -525 -265 -990 -125 -400 -139 -446 -176 -600 -68 -279 -96 -557 -96 -954 0 -255 -11 -369 -55 -551 -169 -711 -689 -1110 -1545 -1186 -168 -15 -557 -6 -730 16 -69 8 -242 35 -385 60 -377 63 -443 70 -695 69 -188 0 -268 -5 -490 -32 -694 -83 -1087 -93 -1325 -32 -152 39 -339 154 -460 282 -79 83 -110 135 -130 218 -9 36 -39 148 -68 250 -51 181 -52 188 -52 320 0 151 10 198 62 304 85 172 169 249 563 516 284 192 381 270 565 455 216 215 338 371 535 685 227 362 266 398 470 440 169 35 306 84 541 198 79 38 242 118 362 176 120 58 223 104 228 101 5 -4 9 -12 9 -19 0 -7 10 -26 22 -41 37 -47 83 -34 307 88 279 152 462 223 811 311 179 46 244 61 619 141 118 26 232 55 252 65 20 11 52 37 71 60 19 22 41 40 48 40 27 0 190 -76 315 -148 72 -40 214 -130 317 -198 103 -68 189 -120 192 -116 3 4 10 72 16 150 17 218 -7 540 -61 822 -72 376 -241 828 -360 964 -47 53 -93 71 -143 57 -41 -11 -44 -5 -19 42 26 51 56 88 83 103 33 18 45 17 87 -3z m-1350 -34 c90 -56 277 -313 393 -539 65 -127 182 -401 175 -409 -7 -6 -69 37 -245 169 -86 64 -182 132 -213 150 -58 35 -77 62 -77 108 0 52 -41 218 -65 268 -31 62 -67 82 -116 65 -18 -6 -34 -9 -36 -7 -8 8 61 200 79 218 20 20 44 14 105 -23z m1249 -296 c-4 -10 -4 -14 0 -10 26 25 174 -318 234 -541 6 -24 14 -50 17 -59 5 -12 3 -14 -8 -8 -10 6 -9 3 2 -11 16 -18 42 -121 74 -289 29 -151 46 -300 52 -462 5 -145 4 -163 -10 -163 -9 0 -18 4 -21 9 -11 17 -287 183 -406 243 -120 61 -120 61 -120 97 0 105 50 528 100 856 36 232 40 254 51 261 5 3 7 9 5 13 -8 13 14 81 26 81 5 0 7 -8 4 -17z m-1786 -194 c46 -12 105 -31 130 -42 l45 -21 -100 -6 c-55 -3 -102 -3 -105 0 -3 3 -29 23 -57 45 -29 21 -53 40 -53 42 0 9 67 0 140 -18z m-337 -30 c12 -6 33 -21 47 -34 41 -36 117 -75 134 -69 12 5 16 0 16 -18 0 -19 36 -50 187 -163 108 -81 237 -188 303 -252 102 -99 113 -113 100 -127 -8 -8 -72 -45 -143 -83 -70 -38 -169 -98 -220 -133 -122 -86 -314 -277 -496 -492 -40 -49 -77 -88 -81 -88 -4 0 -45 39 -91 87 -103 110 -131 167 -137 278 -7 135 5 166 205 560 114 225 134 286 140 433 3 61 7 112 10 112 2 0 14 -5 26 -11z m1871 -211 c-4 -29 -10 -62 -15 -73 -7 -19 -8 -19 -8 2 -1 24 20 123 26 123 2 0 1 -24 -3 -52z m-947 -118 c92 -25 189 -70 271 -124 67 -45 112 -80 112 -89 0 -2 -37 -7 -82 -10 -46 -3 -123 -15 -172 -27 -94 -22 -122 -20 -112 6 3 8 2 13 -3 10 -4 -3 -28 18 -52 47 -24 28 -61 67 -81 86 -21 19 -35 38 -31 44 4 6 1 7 -6 2 -8 -4 -27 7 -52 31 -35 34 -37 40 -22 46 27 12 152 0 230 -22z m738 -166 c-6 -36 -19 -44 -29 -18 -11 29 -6 63 12 73 21 12 27 -5 17 -55z m172 4 c-3 -18 -14 -120 -23 -225 -10 -106 -21 -193 -26 -193 -14 0 -8 153 12 295 11 77 20 143 20 148 0 4 5 7 11 7 7 0 9 -12 6 -32z m-397 -219 c72 -15 139 -84 152 -154 1 -11 9 -25 17 -31 7 -6 14 -25 15 -41 0 -17 4 -29 8 -27 10 7 21 -61 14 -84 -10 -29 -123 -68 -305 -103 -86 -16 -183 -36 -216 -44 -33 -8 -71 -16 -85 -19 -94 -16 -454 -111 -592 -156 -37 -12 -73 -18 -79 -14 -7 4 -9 3 -5 -4 3 -6 -9 -15 -31 -22 -21 -6 -60 -22 -88 -34 -27 -13 -70 -31 -95 -42 -25 -10 -69 -31 -99 -46 -30 -16 -57 -26 -59 -23 -5 4 33 53 92 120 15 17 50 58 78 93 48 58 60 67 81 63 5 -1 6 3 2 8 -8 14 65 92 78 84 5 -3 7 -2 4 4 -8 13 37 56 48 46 4 -5 5 -3 2 3 -8 14 17 37 28 26 5 -4 5 -2 1 5 -7 14 47 56 59 45 5 -4 5 -2 2 4 -6 10 47 53 88 74 6 3 42 25 80 50 149 97 392 195 555 223 52 9 201 7 250 -4z m1587 -209 c355 -495 512 -1292 428 -2170 -58 -605 -194 -1103 -423 -1553 -71 -140 -87 -165 -94 -147 -13 35 -24 302 -22 510 5 348 33 604 124 1110 57 312 70 449 70 717 0 368 -29 713 -94 1103 -34 207 -58 516 -38 495 5 -5 27 -35 49 -65z m-3815 -49 c16 -20 57 -74 93 -119 54 -70 63 -87 54 -103 -5 -11 -15 -16 -21 -13 -6 4 -8 3 -5 -3 3 -5 -21 -36 -53 -68 -33 -33 -60 -56 -60 -52 0 4 -19 -12 -42 -36 -95 -97 -364 -309 -523 -414 -60 -40 -114 -76 -120 -80 -21 -18 -150 -87 -157 -85 -5 1 -8 -3 -8 -9 0 -6 -7 -8 -16 -5 -8 3 -13 2 -10 -3 5 -7 -9 -18 -34 -26 -51 -17 -241 -119 -254 -136 -9 -13 -16 -42 -16 -65 0 -39 3 -44 45 -69 l46 -26 -23 -18 c-13 -10 -54 -39 -93 -66 -38 -27 -98 -68 -132 -92 -35 -24 -63 -42 -63 -39 0 3 -12 -6 -26 -19 -15 -14 -30 -25 -35 -25 -4 0 -38 -21 -76 -46 -96 -64 -411 -217 -513 -249 -103 -33 -247 -44 -316 -25 -32 9 -42 16 -32 22 9 6 7 8 -8 3 -38 -10 -195 79 -176 100 4 5 2 5 -4 2 -11 -6 -56 31 -98 80 -16 20 -17 25 -5 40 13 16 12 17 -3 5 -15 -12 -19 -10 -33 17 -8 17 -13 31 -9 31 4 0 2 6 -4 13 -11 13 -18 45 -29 140 -6 51 14 167 29 167 5 0 6 5 3 10 -9 14 63 162 75 155 5 -3 7 0 4 9 -3 8 4 24 15 35 12 12 21 23 21 26 -1 15 124 137 175 172 20 14 66 39 103 56 57 26 78 31 147 31 80 0 96 -4 200 -55 105 -51 146 -126 124 -224 -14 -64 -34 -64 -50 0 -39 153 -238 206 -426 112 -79 -39 -127 -85 -163 -157 -86 -171 -54 -335 80 -417 l55 -34 165 5 c91 2 174 6 185 9 41 8 141 40 175 54 199 86 320 169 505 344 144 136 170 159 183 154 7 -3 10 -1 7 5 -5 9 6 20 130 131 33 29 75 67 94 84 105 94 270 254 544 527 302 301 309 307 330 291 12 -9 34 -32 49 -52z m4318 -317 c83 -41 149 -78 146 -82 -2 -4 6 -8 17 -8 20 -2 116 -55 217 -119 19 -12 69 -44 110 -70 131 -83 381 -276 373 -288 -3 -7 -3 -9 2 -5 11 11 67 -31 59 -44 -4 -6 -2 -8 3 -5 13 8 36 -17 25 -28 -4 -5 -2 -5 4 -2 14 8 57 -36 47 -47 -5 -4 -1 -6 7 -4 8 2 14 -2 15 -9 0 -6 4 -15 9 -20 5 -5 6 -3 2 5 -12 21 9 13 33 -12 13 -14 20 -29 16 -36 -3 -6 -3 -9 2 -8 5 2 21 -7 37 -19 16 -13 27 -23 24 -23 -3 0 26 -32 64 -72 39 -41 66 -78 63 -85 -2 -8 -1 -12 4 -9 11 7 46 -34 119 -135 29 -41 56 -78 60 -84 9 -12 67 -101 110 -170 17 -27 47 -80 66 -116 18 -36 39 -74 45 -85 42 -76 179 -422 196 -499 2 -11 14 -51 25 -89 79 -273 109 -611 76 -836 -24 -159 -28 -159 -60 7 -16 81 -37 177 -47 212 -10 35 -16 67 -14 72 3 4 0 11 -6 14 -5 4 -8 13 -5 21 3 8 2 14 -3 14 -5 0 -12 16 -16 36 -3 20 -27 96 -51 168 -25 72 -46 136 -48 141 -2 6 -10 27 -20 47 -9 21 -16 40 -16 43 0 3 -14 36 -31 73 -17 36 -32 76 -33 88 0 12 -3 20 -5 18 -2 -2 -34 56 -71 129 -36 72 -79 153 -94 180 -15 26 -24 53 -20 59 4 6 3 8 -3 5 -8 -5 -121 162 -115 171 1 1 -5 10 -13 20 -61 69 -195 264 -189 274 4 6 3 8 -3 5 -6 -4 -22 9 -37 27 -14 19 -32 41 -41 49 -8 8 -49 55 -91 103 -43 49 -117 129 -165 178 -49 49 -86 93 -83 97 3 5 -2 6 -10 3 -19 -7 -22 12 -3 20 6 2 3 4 -9 3 -19 -2 -50 22 -193 149 -80 70 -221 175 -381 282 -85 57 -160 114 -166 126 -27 51 -75 197 -68 207 4 7 3 9 -3 6 -6 -4 -13 2 -16 13 -3 11 -3 20 -1 20 2 0 72 -34 154 -76z m-4013 -49 c17 -19 30 -35 28 -35 -2 0 10 -13 26 -30 17 -16 28 -34 24 -39 -3 -5 0 -13 6 -17 8 -5 9 -3 4 6 -5 8 -3 11 6 8 8 -2 22 -21 32 -41 9 -20 20 -37 23 -37 3 0 2 6 -2 13 -4 6 7 -1 25 -17 20 -19 28 -33 21 -40 -6 -6 -15 -5 -25 4 -13 11 -15 10 -10 -1 4 -10 -10 -23 -42 -39 -27 -13 -52 -24 -58 -25 -5 0 -12 -3 -15 -6 -3 -4 -50 -28 -105 -54 -80 -37 -103 -45 -117 -36 -10 6 -18 7 -18 2 0 -5 6 -11 13 -14 6 -2 -7 -14 -31 -26 -23 -12 -48 -19 -54 -15 -6 4 -8 3 -5 -3 3 -5 -31 -26 -76 -47 -45 -21 -151 -72 -236 -112 -148 -71 -328 -140 -339 -129 -3 2 -11 0 -19 -6 -7 -6 -22 -9 -33 -6 -11 3 -20 2 -20 -3 0 -4 -13 -10 -30 -12 -38 -6 -38 -3 3 18 32 17 168 104 260 166 48 33 311 232 333 253 6 5 51 44 100 85 48 41 133 119 189 172 55 54 103 98 106 98 3 0 19 -16 36 -35z m4126 -458 c52 -38 65 -52 55 -59 -9 -7 -8 -8 6 -4 13 4 36 -7 75 -36 106 -80 140 -111 134 -121 -3 -6 -2 -7 4 -4 14 9 55 -23 49 -38 -2 -7 1 -12 8 -11 20 2 128 -95 122 -110 -3 -7 -1 -16 5 -19 5 -4 9 -3 8 2 -1 4 -1 12 0 17 1 8 155 -146 226 -225 103 -116 124 -143 118 -152 -3 -5 -1 -7 4 -4 15 9 187 -218 177 -234 -4 -7 -3 -10 3 -6 13 8 66 -59 58 -73 -4 -6 -2 -9 3 -8 12 3 153 -215 157 -242 0 -3 12 -23 26 -45 52 -80 109 -208 103 -229 -4 -15 -3 -17 4 -7 8 11 11 10 16 -5 3 -11 5 -23 5 -28 0 -5 3 -12 8 -15 15 -11 34 -62 27 -73 -4 -7 -2 -8 4 -4 11 7 16 -7 15 -41 -1 -7 3 -11 7 -8 12 7 33 -62 24 -76 -4 -8 -3 -9 4 -5 7 4 12 5 12 3 0 -2 16 -48 35 -103 35 -97 96 -304 99 -334 1 -9 5 -20 8 -25 13 -22 69 -320 88 -467 56 -441 49 -841 -21 -1290 -12 -76 -24 -136 -28 -134 -3 2 -7 -15 -8 -38 -4 -57 -48 -228 -57 -219 -4 4 -5 1 -1 -7 3 -8 -6 -53 -20 -100 -14 -47 -27 -92 -29 -100 -7 -24 -81 -228 -117 -320 -45 -115 -177 -381 -237 -477 -26 -43 -51 -86 -55 -97 -6 -16 -10 -16 -25 -5 -15 13 -16 12 -3 -3 12 -16 4 -31 -70 -134 -75 -103 -173 -228 -211 -268 -100 -106 -152 -154 -161 -149 -5 3 -7 1 -3 -5 12 -20 -219 -204 -382 -304 -64 -39 -215 -118 -225 -118 -4 0 -30 -11 -59 -24 -70 -32 -269 -98 -276 -91 -3 2 -10 1 -16 -4 -17 -13 -115 -34 -132 -27 -8 3 -13 2 -10 -3 7 -10 -233 -56 -394 -75 -186 -22 -506 -39 -580 -31 -36 3 -90 6 -120 5 -82 -1 -394 19 -534 35 -123 15 -159 18 -301 30 -44 3 -129 10 -190 15 -327 28 -403 32 -555 26 -231 -8 -355 -29 -493 -82 -45 -17 -50 -17 -41 -2 4 7 3 8 -5 4 -6 -4 -9 -11 -7 -15 3 -4 -21 -20 -52 -36 -171 -86 -316 -236 -387 -400 -14 -33 -29 -67 -34 -75 -4 -8 -9 -54 -10 -101 -3 -113 22 -181 90 -249 32 -32 47 -55 43 -63 -5 -8 -2 -7 9 2 9 7 17 10 17 5 0 -22 159 -84 270 -106 63 -12 117 -23 119 -24 6 -5 -48 -74 -84 -108 -41 -40 -120 -88 -180 -111 -61 -24 -218 -27 -280 -6 -75 26 -145 63 -138 74 3 6 1 7 -6 3 -15 -10 -82 31 -146 87 -45 41 -48 46 -35 63 8 11 10 16 6 12 -5 -4 -16 -2 -25 5 -14 10 -14 10 -3 -5 7 -9 9 -19 5 -21 -5 -3 -27 18 -49 46 -203 264 -259 598 -147 892 34 91 97 208 142 267 20 26 49 65 64 88 16 22 33 37 39 34 6 -4 8 -3 5 2 -11 19 156 179 178 170 8 -3 14 0 12 6 -3 17 128 103 253 165 176 87 380 155 640 213 l124 28 36 -32 c19 -17 56 -52 81 -77 77 -77 228 -184 341 -242 59 -30 104 -58 100 -62 -4 -5 -2 -5 4 -2 7 4 60 -9 120 -28 406 -133 871 -168 1314 -98 58 9 114 17 125 18 11 1 27 5 35 8 8 2 58 15 110 27 98 23 376 112 420 135 106 55 307 149 317 148 7 0 10 3 8 8 -8 11 33 31 47 23 7 -4 8 -3 4 4 -4 7 6 18 25 27 32 17 95 61 184 127 28 21 56 36 63 33 7 -3 11 -1 8 4 -5 8 17 29 134 126 54 45 250 246 250 257 0 5 5 8 11 8 6 0 8 -7 5 -16 -6 -14 -4 -15 9 -4 12 10 13 15 4 21 -9 5 -1 21 27 54 106 127 265 382 333 535 18 41 39 89 47 106 104 235 204 623 251 974 27 205 25 773 -5 994 -12 88 -19 163 -16 168 3 4 0 8 -5 8 -6 0 -11 10 -11 23 0 76 -93 453 -165 672 -31 94 -58 175 -59 180 -2 6 -10 27 -20 47 -9 21 -16 40 -16 42 0 3 -20 53 -45 111 -25 58 -42 111 -39 118 4 7 3 9 -1 5 -5 -5 -38 54 -75 130 -37 75 -93 182 -125 237 -32 55 -63 109 -69 119 -12 22 -12 21 -62 89 -19 26 -32 52 -28 59 4 6 3 8 -3 5 -6 -4 -27 19 -48 51 -21 31 -74 101 -117 155 -45 55 -76 102 -72 109 4 6 3 8 -3 5 -6 -4 -16 0 -23 8 -10 12 -10 19 1 33 13 16 12 16 -4 2 -17 -12 -21 -12 -35 7 -48 59 -102 122 -143 166 -42 44 -48 56 -58 121 -7 39 -20 115 -30 168 l-17 97 20 -11 c12 -6 52 -34 89 -61z m-696 -210 c20 -260 20 -645 0 -812 -9 -71 -35 -231 -57 -355 -92 -510 -110 -677 -117 -1081 -9 -505 36 -976 136 -1434 17 -76 28 -141 26 -144 -8 -8 -30 28 -98 159 -301 579 -453 1312 -407 1960 23 338 86 649 200 986 83 247 129 401 200 669 33 127 65 241 71 255 10 22 12 23 21 7 5 -10 16 -104 25 -210z m-5842 -19 c37 -17 63 -74 69 -151 6 -83 17 -104 68 -127 l40 -18 -48 -16 c-84 -27 -144 -37 -229 -37 -141 -1 -191 36 -183 135 8 102 78 182 185 211 62 17 67 17 98 3z m6744 -579 c238 -314 430 -668 567 -1046 199 -548 286 -1008 287 -1518 1 -500 -93 -986 -274 -1414 -233 -551 -674 -1012 -1244 -1299 -101 -50 -398 -162 -432 -162 -26 0 -197 321 -281 530 -64 161 -97 263 -89 283 3 9 25 21 49 27 97 24 289 90 373 128 815 369 1368 1114 1456 1961 14 141 6 447 -16 586 -69 438 -257 910 -522 1308 l-114 172 7 95 c4 52 8 215 7 362 l0 266 69 -81 c38 -45 109 -134 157 -198z m-228 -737 c8 -15 48 -83 87 -151 40 -68 72 -125 72 -126 0 -2 22 -50 49 -107 156 -328 243 -642 292 -1046 10 -82 10 -129 0 -230 -19 -194 -75 -477 -92 -466 -5 3 -6 -1 -4 -9 13 -32 -110 -327 -205 -492 -48 -85 -98 -164 -110 -175 -3 -3 -24 -30 -45 -60 -75 -103 -210 -249 -314 -337 -170 -145 -382 -289 -405 -276 -6 3 -8 3 -4 -2 8 -8 -45 -46 -68 -49 -7 -1 -18 -6 -25 -12 -8 -6 -43 -23 -79 -38 -36 -15 -80 -34 -97 -42 -56 -25 -113 -43 -113 -36 0 4 -4 2 -8 -4 -7 -12 -166 -64 -194 -64 -27 0 -47 55 -62 178 -32 241 -36 329 -15 317 5 -3 6 0 3 8 -3 9 30 42 93 93 160 129 291 277 384 437 22 37 46 67 53 67 7 0 19 -12 27 -27 18 -38 81 -115 148 -186 84 -89 263 -218 275 -198 6 9 -23 102 -50 160 -25 52 -87 266 -86 294 0 9 -3 17 -7 17 -5 0 -11 12 -14 28 -3 15 -26 119 -52 232 -44 193 -47 216 -54 405 l-7 200 73 128 c40 70 73 131 73 136 0 5 6 16 13 23 7 7 37 67 66 133 29 66 61 138 72 160 29 62 138 385 154 455 2 8 17 76 34 150 41 181 93 446 96 495 3 48 2 45 18 45 6 0 19 -12 28 -28z m-1222 -1603 c28 -107 71 -254 97 -325 26 -71 47 -140 47 -154 0 -14 -32 -74 -70 -135 -196 -309 -283 -503 -330 -740 -27 -136 -24 -477 6 -639 40 -225 92 -404 180 -625 23 -57 39 -107 35 -110 -7 -7 -169 161 -228 238 -247 321 -386 702 -386 1051 1 182 35 358 126 633 74 226 157 420 212 495 77 107 139 218 187 342 25 62 45 117 45 121 0 16 23 64 26 54 2 -5 26 -98 53 -206z m272 -757 l39 -73 -44 -90 c-51 -102 -143 -237 -198 -291 -21 -20 -38 -40 -38 -45 0 -5 -27 -32 -60 -61 -45 -40 -62 -50 -66 -38 -8 21 26 137 39 129 6 -3 7 -1 3 6 -7 11 13 74 52 158 8 18 19 30 25 26 6 -3 7 -1 3 6 -5 7 8 38 28 72 20 33 36 63 36 66 0 4 13 27 28 52 16 25 44 72 63 104 18 31 37 56 42 54 5 -1 27 -35 48 -75z m-1154 -1096 c68 -1 127 -6 131 -11 8 -9 72 -204 72 -218 0 -19 -146 47 -241 108 -78 51 -169 123 -169 136 0 4 19 2 43 -3 23 -5 97 -11 164 -12z m-1177 -361 c108 -82 217 -143 342 -191 287 -111 744 -119 1080 -18 45 13 91 24 102 24 15 0 35 -22 70 -76 144 -221 423 -484 643 -605 41 -23 71 -45 66 -49 -14 -13 -142 -40 -282 -61 -419 -61 -922 -15 -1261 116 -368 141 -635 400 -789 765 -22 52 -43 108 -47 124 -8 34 -6 33 76 -29z" />
    <path
       id="path4"
       d="M7915 14720 c3 -5 8 -10 11 -10 2 0 4 5 4 10 0 6 -5 10 -11 10 -5 0 -7 -4 -4 -10z" />
    <path
       id="path6"
       d="M8315 11103 c-134 -94 -251 -126 -464 -125 -203 1 -280 23 -369 104 -37 34 -48 39 -74 34 -43 -8 -54 -21 -61 -62 -5 -26 -23 -54 -67 -99 -42 -45 -60 -71 -60 -90 0 -30 40 -75 68 -75 22 0 98 48 131 84 27 29 48 32 74 14 16 -12 16 -16 -3 -54 -16 -32 -18 -47 -11 -67 11 -29 47 -57 74 -57 22 0 75 52 99 98 13 25 24 32 46 32 47 0 54 -17 41 -98 -14 -87 -1 -117 56 -128 60 -11 87 29 103 151 l7 60 35 0 c32 0 35 -3 42 -40 20 -94 41 -161 55 -177 22 -24 74 -23 101 2 26 24 28 59 7 145 -23 93 -21 103 21 111 35 6 39 4 93 -54 31 -33 64 -63 74 -66 44 -14 103 41 92 86 -4 13 -19 40 -36 59 -27 31 -39 69 -22 69 14 0 180 -52 229 -72 31 -12 61 -18 76 -15 28 7 48 44 48 88 0 37 -32 58 -156 99 -50 17 -106 42 -124 55 -45 33 -65 31 -125 -12z" />
    <path
       id="path8"
       d="M5512 9664 c-12 -8 -41 -52 -64 -97 -22 -45 -49 -93 -60 -107 -46 -59 -112 -75 -185 -45 -47 20 -63 19 -63 -4 0 -23 50 -67 105 -92 140 -64 318 38 378 215 22 65 21 102 -3 126 -24 24 -77 26 -108 4z" />
    <path
       id="path10"
       d="M11061 13374 c0 -11 3 -14 6 -6 3 7 2 16 -1 19 -3 4 -6 -2 -5 -13z" />
    <path
       id="path12"
       d="M10600 13176 c0 -2 8 -10 18 -17 15 -13 16 -12 3 4 -13 16 -21 21 -21 13z" />
    <path
       id="path14"
       d="M10930 13036 c0 -2 7 -7 16 -10 8 -3 12 -2 9 4 -6 10 -25 14 -25 6z" />
    <path
       id="path16"
       d="M9400 13826 c7 -7 13 -7 20 0 6 6 3 10 -10 10 -13 0 -16 -4 -10 -10z" />
    <path
       id="path18"
       d="M10170 13376 c0 -2 8 -10 18 -17 15 -13 16 -12 3 4 -13 16 -21 21 -21 13z" />
    <path
       id="path20"
       d="M9310 13216 c7 -7 13 -7 20 0 6 6 3 10 -10 10 -13 0 -16 -4 -10 -10z" />
    <path
       id="path22"
       d="M9080 13065 c-7 -9 -8 -15 -2 -15 5 0 12 7 16 15 3 8 4 15 2 15 -2 0 -9 -7 -16 -15z" />
    <path
       id="path24"
       d="M9006 12992 c-3 -6 1 -15 8 -21 8 -7 17 -8 20 -3 3 6 -1 15 -8 21 -8 7 -17 8 -20 3z" />
    <path
       id="path26"
       d="M12126 12713 c-6 -14 -5 -15 5 -6 7 7 10 15 7 18 -3 3 -9 -2 -12 -12z" />
    <path
       id="path28"
       d="M12487 12659 c7 -7 15 -10 18 -7 3 3 -2 9 -12 12 -14 6 -15 5 -6 -5z" />
    <path
       id="path30"
       d="M12739 12535 c-1 -3 -2 -8 -3 -12 -1 -5 -5 -15 -10 -23 -7 -12 -6 -13 4 -3 13 12 23 43 14 43 -2 0 -5 -2 -5 -5z" />
    <path
       id="path32"
       d="M12783 12495 c0 -8 4 -12 9 -9 5 3 6 10 3 15 -9 13 -12 11 -12 -6z" />
    <path
       id="path34"
       d="M13053 12255 c0 -7 6 -11 14 -8 7 3 13 6 13 8 0 2 -6 5 -13 8 -8 3 -14 -1 -14 -8z" />
    <path
       id="path36"
       d="M13206 12088 c3 -5 10 -6 15 -3 13 9 11 12 -6 12 -8 0 -12 -4 -9 -9z" />
    <path
       id="path38"
       d="M12920 12086 c0 -2 8 -10 18 -17 15 -13 16 -12 3 4 -13 16 -21 21 -21 13z" />
    <path
       id="path40"
       d="M13315 11639 c-3 -4 2 -6 10 -5 21 3 28 13 10 13 -9 0 -18 -4 -20 -8z" />
    <path
       id="path42"
       d="M13624 11627 c0 -13 6 -24 13 -24 9 0 9 6 1 21 -15 30 -16 30 -14 3z" />
    <path
       id="path44"
       d="M7959 12673 c-13 -16 -12 -17 4 -4 16 13 21 21 13 21 -2 0 -10 -8 -17 -17z" />
    <path
       id="path46"
       d="M8246 12662 c-3 -5 1 -9 9 -9 8 0 12 4 9 9 -3 4 -7 8 -9 8 -2 0 -6 -4 -9 -8z" />
    <path
       id="path48"
       d="M7885 12612 c-6 -6 4 -22 15 -22 4 0 10 6 13 13 5 13 -17 20 -28 9z" />
    <path
       id="path50"
       d="M7690 12300 c-9 -6 -10 -10 -3 -10 6 0 15 5 18 10 8 12 4 12 -15 0z" />
    <path
       id="path52"
       d="M12725 11949 c-4 -6 -4 -13 -1 -16 3 -4 6 -1 6 6 0 7 5 9 10 6 6 -4 7 -11 4 -17 -4 -7 -2 -8 5 -4 9 6 9 11 0 22 -14 17 -16 17 -24 3z" />
    <path
       id="path54"
       d="M12433 11906 c-4 -5 -1 -6 7 -1 10 6 12 4 6 -10 -7 -18 -6 -18 14 0 11 10 20 19 20 19 0 7 -43 -1 -47 -8z" />
    <path
       id="path56"
       d="M12804 11869 c-11 -18 14 -35 29 -20 10 10 8 11 -7 5 -16 -6 -18 -4 -13 9 7 19 2 23 -9 6z" />
    <path
       id="path58"
       d="M12893 11794 c14 -17 15 -23 5 -27 -9 -4 -9 -6 -1 -6 22 -2 23 16 0 35 l-22 19 18 -21z" />
    <path
       id="path60"
       d="M12995 11700 c-4 -6 -11 -7 -17 -4 -7 4 -8 2 -4 -5 6 -9 11 -9 22 0 14 11 18 19 10 19 -3 0 -8 -5 -11 -10z" />
    <path
       id="path62"
       d="M13530 10901 c0 -6 4 -13 10 -16 6 -3 7 1 4 9 -7 18 -14 21 -14 7z" />
    <path
       id="path64"
       d="M13336 10237 c3 -10 9 -15 12 -12 3 3 0 11 -7 18 -10 9 -11 8 -5 -6z" />
    <path
       id="path66"
       d="M12836 6813 c-6 -14 -5 -15 5 -6 7 7 10 15 7 18 -3 3 -9 -2 -12 -12z" />
    <path
       id="path68"
       d="M12706 6666 c6 -16 4 -18 -12 -12 -15 6 -17 5 -6 -5 9 -10 15 -10 24 -1 9 9 9 15 -1 25 -10 10 -11 8 -5 -7z" />
    <path
       id="path70"
       d="M8875 6360 c-3 -6 1 -7 9 -4 18 7 21 14 7 14 -6 0 -13 -4 -16 -10z" />
    <path
       id="path72"
       d="M12984 6288 l-19 -23 23 19 c21 18 27 26 19 26 -2 0 -12 -10 -23 -22z" />
    <path
       id="path74"
       d="M8220 6090 c-9 -6 -10 -10 -3 -10 6 0 15 5 18 10 8 12 4 12 -15 0z" />
    <path
       id="path76"
       d="M8778 5663 c7 -3 16 -2 19 1 4 3 -2 6 -13 5 -11 0 -14 -3 -6 -6z" />
    <path
       id="path78"
       d="M7720 5644 c0 -6 7 -19 16 -30 14 -18 14 -18 3 6 -14 31 -19 36 -19 24z" />
    <path
       id="path80"
       d="M7647 5503 c3 -7 6 -13 8 -13 2 0 5 6 8 13 3 8 -1 14 -8 14 -7 0 -11 -6 -8 -14z" />
    <path
       id="path82"
       d="M8247 5327 c-3 -8 1 -14 8 -14 7 0 11 6 8 14 -3 7 -6 13 -8 13 -2 0 -5 -6 -8 -13z" />
    <path
       id="path84"
       d="M8101 5004 c0 -11 3 -14 6 -6 3 7 2 16 -1 19 -3 4 -6 -2 -5 -13z" />
    <path
       id="path86"
       d="M7731 4623 c7 -12 15 -20 18 -17 3 2 -3 12 -13 22 -17 16 -18 16 -5 -5z" />
    <path
       id="path88"
       d="M8323 4585 c0 -7 6 -11 14 -8 7 3 13 6 13 8 0 2 -6 5 -13 8 -8 3 -14 -1 -14 -8z" />
    <path
       id="path90"
       d="M8574 4418 l-19 -23 23 19 c12 11 22 21 22 23 0 8 -8 2 -26 -19z" />
    <path
       id="path92"
       d="M8485 4381 c-3 -5 -2 -12 3 -15 5 -3 9 1 9 9 0 17 -3 19 -12 6z" />
    <path
       id="path94"
       d="M11296 8425 c-9 -26 -7 -32 5 -12 6 10 9 21 6 23 -2 3 -7 -2 -11 -11z" />
    <path
       id="path96"
       d="M11154 8332 c4 -3 14 -7 22 -8 9 -1 13 0 10 4 -4 3 -14 7 -22 8 -9 1 -13 0 -10 -4z" />
    <path
       id="path98"
       d="M11095 8199 c-4 -6 -5 -12 -2 -15 2 -3 7 2 10 11 7 17 1 20 -8 4z" />
    <path
       id="path100"
       d="M11126 8067 c3 -10 9 -15 12 -12 3 3 0 11 -7 18 -10 9 -11 8 -5 -6z" />
    <path
       id="path102"
       d="M10974 7888 l-19 -23 23 19 c21 18 27 26 19 26 -2 0 -12 -10 -23 -22z" />
  </g>
</svg>
